<svg xmlns="http://www.w3.org/2000/svg" viewBox="0 0 1900.74 657.3"><defs><style>.cls-1{fill:#fc2c62;}</style></defs><title>Asset 3</title><g id="Layer_2" data-name="Layer 2"><g id="Layer_1-2" data-name="Layer 1"><path d="M336.68,162.5c0-40.43-14.63-80.17-41.82-110.14C265.58,16.81,220.28.08,172.87.08c-41.12,0-85,11.15-116.41,39C23,69.09,1.39,114.4,2.79,161.1H83a88.52,88.52,0,0,1,27.19-63.43A85.17,85.17,0,0,1,168.69,74a86.16,86.16,0,0,1,65.53,29.28,89.31,89.31,0,0,1,21.61,58.55c0,24.4-11.86,51.58-43.92,80.86L0,437.84v73.89H329.71V437.84h-207L254.43,311C307.41,261.48,336.68,225.93,336.68,162.5Z"/><path d="M549.15.08C496.17-1.31,446,20.3,413.92,57.24c-34.16,41.13-42.52,78.07-42.52,130.35V334.67c0,53,9.06,89.93,42.52,129.66,33.46,39,84.34,57.85,135.23,57.85,53.67,0,102.47-19.51,135.93-57.85,33.46-39,41.82-78.77,41.82-129.66V187.59c0-53-9.06-92-42.52-130.35C650.23,18.2,599.34-1.31,549.15.08Zm97.59,334.59c0,28.58-1.39,48.1-14.64,68.32a99.55,99.55,0,0,1-83,45.31c-32.76,0-64.13-17.43-82.25-44.62-13.95-21.61-15.34-45.31-15.34-69V187.59c0-26.49,2.79-47.4,14.64-66.22C482.93,92.79,515,74,549.15,74s66.92,18.82,84.35,48.1c12.54,22.3,13.24,39.73,13.24,65.52Z"/><rect class="cls-1" x="984.32" width="78.78" height="78.78"/><path class="cls-1" d="M1823,168.37l-94,254.85-96.49-254.85h-160.7V.08L1393,78.78v89.59H1257.44V146.55h0a67.72,67.72,0,0,1,67.7-67.81V.08a146.47,146.47,0,0,0-146.47,146.47v21.82H865V146.55h0a67.81,67.81,0,0,1,67.81-67.81V.08A146.47,146.47,0,0,0,786.35,146.55h-.08v21.82h0v70.08h0v274H865v-274h119.3v274h78.77v-274h115.58v274h78.77v-274H1393V374h.1a146.47,146.47,0,0,0,146.47,146.47h41.35V441.78h-41.35A67.81,67.81,0,0,1,1471.74,374h0V238.45H1580.9l111.16,283.47L1641.3,657.3h75.91L1881.94,218l18.8-49.63Z"/></g></g></svg>